<mxfile host="app.diagrams.net" modified="2021-02-06T08:52:43.948Z" agent="5.0 (Windows)" etag="j1U9MIhSujmUDIdKUXh6" version="14.2.9" type="github">
  <diagram id="I-hM_29JIwtNaXJ53r-9" name="Page-1">
    <mxGraphModel dx="1038" dy="519" grid="1" gridSize="10" guides="1" tooltips="1" connect="1" arrows="1" fold="1" page="1" pageScale="1" pageWidth="827" pageHeight="1169" math="0" shadow="0">
      <root>
        <mxCell id="0" />
        <mxCell id="1" parent="0" />
        <mxCell id="82Hs5pE1gFmLMtyOIiXU-3" value="" style="edgeStyle=orthogonalEdgeStyle;rounded=0;orthogonalLoop=1;jettySize=auto;html=1;" edge="1" parent="1" source="82Hs5pE1gFmLMtyOIiXU-1" target="82Hs5pE1gFmLMtyOIiXU-2">
          <mxGeometry relative="1" as="geometry" />
        </mxCell>
        <mxCell id="82Hs5pE1gFmLMtyOIiXU-1" value="" style="ellipse;whiteSpace=wrap;html=1;aspect=fixed;strokeColor=#000000;fillColor=#000000;" vertex="1" parent="1">
          <mxGeometry x="160" y="100" width="40" height="40" as="geometry" />
        </mxCell>
        <mxCell id="82Hs5pE1gFmLMtyOIiXU-14" value="" style="edgeStyle=orthogonalEdgeStyle;rounded=0;orthogonalLoop=1;jettySize=auto;html=1;" edge="1" parent="1" source="82Hs5pE1gFmLMtyOIiXU-2" target="82Hs5pE1gFmLMtyOIiXU-13">
          <mxGeometry relative="1" as="geometry" />
        </mxCell>
        <mxCell id="82Hs5pE1gFmLMtyOIiXU-2" value="" style="ellipse;whiteSpace=wrap;html=1;fillColor=#FFFFFF;" vertex="1" parent="1">
          <mxGeometry x="135" y="160" width="90" height="40" as="geometry" />
        </mxCell>
        <mxCell id="82Hs5pE1gFmLMtyOIiXU-4" value="Ввести строку" style="text;html=1;strokeColor=none;fillColor=none;align=center;verticalAlign=middle;whiteSpace=wrap;rounded=0;" vertex="1" parent="1">
          <mxGeometry x="135" y="170" width="90" height="20" as="geometry" />
        </mxCell>
        <mxCell id="82Hs5pE1gFmLMtyOIiXU-8" value="" style="edgeStyle=orthogonalEdgeStyle;rounded=0;orthogonalLoop=1;jettySize=auto;html=1;" edge="1" parent="1" source="82Hs5pE1gFmLMtyOIiXU-5" target="82Hs5pE1gFmLMtyOIiXU-7">
          <mxGeometry relative="1" as="geometry" />
        </mxCell>
        <mxCell id="82Hs5pE1gFmLMtyOIiXU-10" value="" style="edgeStyle=orthogonalEdgeStyle;rounded=0;orthogonalLoop=1;jettySize=auto;html=1;" edge="1" parent="1" source="82Hs5pE1gFmLMtyOIiXU-5" target="82Hs5pE1gFmLMtyOIiXU-9">
          <mxGeometry relative="1" as="geometry" />
        </mxCell>
        <mxCell id="82Hs5pE1gFmLMtyOIiXU-5" value="" style="rhombus;whiteSpace=wrap;html=1;strokeColor=#000000;fillColor=#FFFFFF;" vertex="1" parent="1">
          <mxGeometry x="155" y="320" width="50" height="40" as="geometry" />
        </mxCell>
        <mxCell id="82Hs5pE1gFmLMtyOIiXU-7" value="" style="ellipse;whiteSpace=wrap;html=1;fillColor=#FFFFFF;" vertex="1" parent="1">
          <mxGeometry x="130" y="400" width="100" height="40" as="geometry" />
        </mxCell>
        <mxCell id="82Hs5pE1gFmLMtyOIiXU-19" value="" style="edgeStyle=orthogonalEdgeStyle;rounded=0;orthogonalLoop=1;jettySize=auto;html=1;" edge="1" parent="1" source="82Hs5pE1gFmLMtyOIiXU-9" target="82Hs5pE1gFmLMtyOIiXU-11">
          <mxGeometry relative="1" as="geometry" />
        </mxCell>
        <mxCell id="82Hs5pE1gFmLMtyOIiXU-9" value="" style="ellipse;whiteSpace=wrap;html=1;fillColor=#FFFFFF;" vertex="1" parent="1">
          <mxGeometry x="260" y="400" width="90" height="40" as="geometry" />
        </mxCell>
        <mxCell id="82Hs5pE1gFmLMtyOIiXU-11" value="" style="ellipse;whiteSpace=wrap;html=1;aspect=fixed;strokeColor=#000000;fillColor=#000000;" vertex="1" parent="1">
          <mxGeometry x="270" y="480" width="40" height="40" as="geometry" />
        </mxCell>
        <mxCell id="82Hs5pE1gFmLMtyOIiXU-12" value="Вывести &quot;Больше букв а&quot;" style="text;html=1;strokeColor=none;fillColor=none;align=center;verticalAlign=middle;whiteSpace=wrap;rounded=0;" vertex="1" parent="1">
          <mxGeometry x="135" y="410" width="90" height="20" as="geometry" />
        </mxCell>
        <mxCell id="82Hs5pE1gFmLMtyOIiXU-15" value="" style="edgeStyle=orthogonalEdgeStyle;rounded=0;orthogonalLoop=1;jettySize=auto;html=1;" edge="1" parent="1" source="82Hs5pE1gFmLMtyOIiXU-13" target="82Hs5pE1gFmLMtyOIiXU-5">
          <mxGeometry relative="1" as="geometry" />
        </mxCell>
        <mxCell id="82Hs5pE1gFmLMtyOIiXU-13" value="" style="ellipse;whiteSpace=wrap;html=1;fillColor=#FFFFFF;" vertex="1" parent="1">
          <mxGeometry x="127.5" y="240" width="105" height="50" as="geometry" />
        </mxCell>
        <mxCell id="82Hs5pE1gFmLMtyOIiXU-17" value="Посчитать количество а и о в строке" style="text;html=1;strokeColor=none;fillColor=none;align=center;verticalAlign=middle;whiteSpace=wrap;rounded=0;" vertex="1" parent="1">
          <mxGeometry x="140" y="255" width="80" height="20" as="geometry" />
        </mxCell>
        <mxCell id="82Hs5pE1gFmLMtyOIiXU-18" value="Вывести &quot;Больше букв о&quot;" style="text;html=1;strokeColor=none;fillColor=none;align=center;verticalAlign=middle;whiteSpace=wrap;rounded=0;" vertex="1" parent="1">
          <mxGeometry x="260" y="410" width="90" height="20" as="geometry" />
        </mxCell>
        <mxCell id="82Hs5pE1gFmLMtyOIiXU-20" value="[ else ]" style="text;html=1;strokeColor=none;fillColor=none;align=center;verticalAlign=middle;whiteSpace=wrap;rounded=0;" vertex="1" parent="1">
          <mxGeometry x="210" y="320" width="40" height="20" as="geometry" />
        </mxCell>
        <mxCell id="82Hs5pE1gFmLMtyOIiXU-21" value="[ o_count &amp;gt; a count ]" style="text;html=1;strokeColor=none;fillColor=none;align=center;verticalAlign=middle;whiteSpace=wrap;rounded=0;" vertex="1" parent="1">
          <mxGeometry x="70" y="360" width="120" height="20" as="geometry" />
        </mxCell>
        <mxCell id="82Hs5pE1gFmLMtyOIiXU-22" value="" style="endArrow=none;html=1;exitX=0.5;exitY=1;exitDx=0;exitDy=0;" edge="1" parent="1" source="82Hs5pE1gFmLMtyOIiXU-7">
          <mxGeometry width="50" height="50" relative="1" as="geometry">
            <mxPoint x="390" y="320" as="sourcePoint" />
            <mxPoint x="180" y="460" as="targetPoint" />
            <Array as="points" />
          </mxGeometry>
        </mxCell>
        <mxCell id="82Hs5pE1gFmLMtyOIiXU-23" value="" style="endArrow=none;html=1;" edge="1" parent="1">
          <mxGeometry width="50" height="50" relative="1" as="geometry">
            <mxPoint x="180" y="460" as="sourcePoint" />
            <mxPoint x="290" y="460" as="targetPoint" />
          </mxGeometry>
        </mxCell>
      </root>
    </mxGraphModel>
  </diagram>
</mxfile>
